<?xml version="1.0" standalone="no"?>
<!DOCTYPE svg PUBLIC "-//W3C//DTD SVG 20010904//EN"
 "http://www.w3.org/TR/2001/REC-SVG-20010904/DTD/svg10.dtd">
<svg version="1.0" xmlns="http://www.w3.org/2000/svg"
 width="1848.000000pt" height="1848.000000pt" viewBox="0 0 1848.000000 1848.000000"
 preserveAspectRatio="xMidYMid meet">
<metadata>
Created by potrace 1.15, written by Peter Selinger 2001-2017
</metadata>
<g transform="translate(0.000000,1848.000000) scale(0.100000,-0.100000)"
fill="#000000" stroke="none">
<path d="M13245 16600 l-1290 -1290 3 -2593 4 -2592 1289 -1290 1289 -1290 0
5172 c0 2845 -1 5173 -3 5173 -1 0 -583 -581 -1292 -1290z"/>
<path d="M4180 12713 l0 -5173 1290 0 1290 0 0 2333 0 2333 -259 257 -258 258
365 359 c200 197 542 539 759 759 l394 401 -684 682 c-376 376 -825 829 -998
1008 -173 179 -384 397 -471 485 -86 88 -175 180 -199 205 -67 71 -844 870
-1121 1155 l-108 110 0 -5172z"/>
<path d="M1630 4605 l0 -1995 510 0 510 0 0 649 0 649 116 144 c64 78 119 147
123 151 5 4 277 -352 607 -792 l598 -801 629 0 629 0 -29 38 c-31 43 -722 948
-818 1072 -329 426 -780 1024 -780 1034 0 13 71 98 1032 1235 l513 606 -593 3
-592 3 -25 -32 c-14 -18 -88 -112 -165 -210 -152 -192 -254 -321 -840 -1064
-212 -269 -390 -491 -396 -493 -5 -2 -9 337 -9 897 l0 901 -510 0 -510 0 0
-1995z"/>
<path d="M5870 4605 l0 -1995 1445 0 1445 0 0 380 0 380 -932 2 -933 3 0 495
0 495 868 3 867 2 -2 383 -3 382 -855 2 c-470 2 -861 3 -868 3 -10 0 -12 73
-10 348 l3 347 933 3 932 2 0 380 0 380 -1445 0 -1445 0 0 -1995z"/>
<path d="M9630 4605 l0 -1995 1445 0 1445 0 0 383 0 382 -932 0 -933 0 -3 498
-2 497 870 0 870 0 -2 383 -3 382 -855 2 c-470 2 -861 3 -868 3 -10 0 -12 73
-10 348 l3 347 933 3 932 2 0 380 0 380 -1445 0 -1445 0 0 -1995z"/>
<path d="M13390 4605 l0 -1995 470 0 470 0 0 1365 c0 870 3 1365 10 1365 5 0
15 -10 21 -22 7 -13 186 -304 399 -648 893 -1442 1247 -2016 1259 -2037 l12
-23 497 0 497 0 0 1995 0 1995 -467 0 -468 0 0 -1140 c0 -627 -3 -1140 -8
-1140 -4 0 -57 78 -117 173 -61 95 -387 608 -725 1140 l-615 966 -617 1 -618
0 0 -1995z"/>
<path d="M12060 1864 c-121 -33 -240 -117 -299 -215 -59 -95 -84 -188 -88
-339 -6 -161 10 -251 61 -355 44 -90 95 -148 170 -197 155 -100 402 -114 560
-33 l49 26 41 -38 c23 -21 55 -51 72 -66 l31 -28 57 64 57 65 -61 58 c-33 31
-60 61 -60 65 0 5 14 30 30 56 76 120 109 341 76 513 -40 215 -183 373 -381
425 -75 19 -241 19 -315 -1z m290 -202 c125 -55 201 -226 187 -421 -5 -71 -42
-211 -56 -211 -3 1 -30 23 -60 50 -30 28 -57 50 -60 50 -4 0 -33 -26 -64 -58
l-58 -58 56 -53 c30 -29 55 -56 55 -60 0 -14 -77 -31 -143 -31 -125 0 -239 86
-282 214 -23 68 -31 247 -15 328 27 140 110 234 235 269 46 13 155 3 205 -19z"/>
<path d="M1986 1842 c-3 -5 -31 -80 -61 -168 -65 -183 -148 -414 -177 -494
-47 -130 -168 -472 -168 -476 0 -2 54 -4 119 -4 l119 0 40 118 39 117 218 0
219 0 37 -115 38 -115 126 -3 c119 -2 127 -1 121 15 -4 10 -50 140 -103 288
-52 149 -114 324 -138 390 -23 66 -69 195 -101 287 l-59 168 -132 0 c-72 0
-134 -4 -137 -8z m213 -488 c39 -121 71 -223 71 -227 0 -10 -298 -9 -303 1 -7
12 146 463 154 455 4 -4 39 -107 78 -229z"/>
<path d="M7490 1846 c0 -3 90 -168 200 -366 l201 -360 -3 -210 -3 -210 118 0
117 0 0 215 0 216 29 57 c16 31 101 192 190 356 89 164 161 301 161 303 0 2
-59 2 -132 1 l-132 -3 -111 -244 c-61 -135 -115 -246 -120 -247 -6 -2 -62 108
-126 244 l-116 247 -137 3 c-75 1 -136 0 -136 -2z"/>
<path d="M14830 1275 l0 -575 110 0 110 0 0 575 0 575 -110 0 -110 0 0 -575z"/>
<path d="M15280 1750 l0 -100 110 0 110 0 0 100 0 100 -110 0 -110 0 0 -100z"/>
<path d="M15755 1673 l0 -118 -57 -3 -58 -3 0 -74 0 -74 58 -3 57 -3 5 -310
c5 -337 5 -336 64 -371 34 -20 165 -31 238 -20 l43 6 0 74 0 74 -52 4 c-87 7
-83 -5 -83 289 l0 259 68 0 67 0 0 75 0 75 -67 0 -68 0 0 120 0 120 -107 0
-108 0 0 -117z"/>
<path d="M3030 1560 c-66 -11 -113 -33 -160 -77 -104 -93 -121 -251 -37 -340
40 -42 95 -65 266 -108 165 -41 198 -56 207 -89 9 -37 2 -57 -29 -80 -24 -18
-43 -21 -120 -21 -114 0 -154 19 -177 83 l-14 42 -108 0 -108 0 7 -42 c15 -97
78 -180 164 -217 116 -50 332 -50 448 0 95 40 152 128 153 234 1 147 -75 211
-315 266 -190 43 -232 68 -212 126 14 38 67 63 135 63 71 0 119 -24 145 -72
l20 -38 103 0 c79 0 102 3 102 13 0 31 -30 112 -56 148 -62 89 -245 138 -414
109z"/>
<path d="M3924 1560 c-135 -29 -217 -105 -244 -224 -13 -60 0 -134 32 -179 27
-38 137 -89 243 -112 115 -25 207 -55 228 -73 17 -15 23 -67 9 -89 -24 -38
-153 -55 -234 -31 -45 13 -88 59 -88 94 0 24 0 24 -111 24 l-112 0 7 -46 c12
-88 75 -173 156 -211 75 -35 222 -50 330 -34 189 29 291 137 277 292 -12 139
-84 189 -371 254 -127 29 -156 46 -156 93 0 49 40 76 120 80 85 5 143 -22 162
-75 l12 -33 107 0 107 0 -12 54 c-7 30 -22 69 -32 87 -27 46 -95 95 -157 114
-63 19 -216 28 -273 15z"/>
<path d="M5975 1561 c-54 -14 -94 -41 -135 -92 -22 -28 -40 -55 -40 -60 0 -5
-4 -9 -10 -9 -6 0 -10 32 -10 75 l0 75 -100 0 -100 0 0 -425 0 -425 110 0 110
0 0 250 c0 262 5 295 48 344 30 33 93 56 160 56 l62 0 0 110 0 110 -32 -1
c-18 -1 -46 -4 -63 -8z"/>
<path d="M6453 1560 c-138 -29 -238 -116 -284 -247 -27 -75 -36 -239 -20 -325
16 -79 64 -171 110 -209 57 -47 152 -90 230 -102 85 -13 202 2 267 34 83 39
166 131 189 207 6 22 6 22 -104 22 l-110 0 -22 -31 c-61 -86 -210 -92 -292
-13 -38 37 -75 130 -63 160 5 12 49 14 307 12 l302 -3 -6 95 c-16 255 -147
394 -382 405 -44 2 -99 0 -122 -5z m210 -203 c43 -32 66 -72 69 -119 l3 -33
-187 -3 c-184 -2 -188 -2 -188 18 0 27 26 89 48 114 40 45 74 57 148 54 59 -3
77 -8 107 -31z"/>
<path d="M8916 1559 c-67 -11 -168 -62 -204 -104 -137 -155 -161 -397 -60
-587 58 -110 154 -172 294 -190 161 -22 300 18 387 111 82 87 121 195 120 331
0 175 -75 323 -199 396 -77 45 -218 64 -338 43z m203 -190 c70 -39 111 -131
111 -249 0 -120 -46 -217 -121 -256 -35 -18 -129 -18 -172 0 -41 17 -91 73
-108 123 -8 22 -14 79 -14 133 0 54 6 111 14 133 17 48 66 106 106 123 48 21
141 17 184 -7z"/>
<path d="M10979 1554 c-45 -13 -88 -52 -146 -130 l-22 -29 0 78 -1 77 -100 0
-100 0 0 -425 0 -425 108 0 107 0 0 248 c0 273 4 299 58 349 41 38 84 53 158
53 l59 0 0 110 0 110 -37 -1 c-21 0 -59 -7 -84 -15z"/>
<path d="M14159 1561 c-66 -12 -139 -47 -176 -83 -32 -31 -66 -105 -77 -165
l-5 -33 102 0 102 0 17 40 c23 55 67 80 143 80 105 0 163 -49 139 -117 -13
-40 -63 -60 -189 -78 -144 -20 -205 -40 -256 -83 -59 -51 -79 -100 -79 -197 0
-93 20 -146 70 -188 55 -47 98 -60 190 -61 73 -1 93 3 140 26 30 15 72 44 92
64 40 39 42 38 53 -28 l6 -38 119 0 c66 0 120 3 120 7 0 4 -10 17 -22 31 -23
23 -23 29 -28 340 -6 351 -8 367 -74 417 -73 55 -266 88 -387 66z m251 -508
c0 -124 -44 -189 -147 -219 -45 -13 -63 -14 -94 -5 -49 15 -79 53 -79 102 0
85 40 117 179 143 45 9 90 20 99 26 35 20 42 12 42 -47z"/>
<path d="M4602 1213 l3 -338 26 -56 c45 -95 126 -139 253 -139 39 1 88 7 109
14 52 19 111 61 127 91 23 44 37 30 32 -30 l-4 -55 106 0 106 0 0 425 0 425
-104 0 -104 0 -4 -272 c-5 -301 -11 -334 -70 -383 -55 -47 -148 -55 -204 -19
-50 34 -54 59 -54 378 l0 296 -111 0 -110 0 3 -337z"/>
<path d="M9622 1213 l3 -338 26 -56 c45 -95 126 -139 253 -139 39 1 88 7 109
14 52 19 111 61 127 91 23 44 37 30 32 -30 l-4 -55 106 0 106 0 0 425 0 425
-107 0 -108 0 0 -268 c0 -297 -7 -336 -66 -386 -56 -48 -149 -56 -205 -20 -50
34 -54 59 -54 378 l0 296 -110 0 -111 0 3 -337z"/>
<path d="M12942 1218 c4 -293 6 -339 22 -382 42 -109 138 -162 285 -154 91 4
139 25 198 85 22 24 44 43 47 43 3 0 6 -25 6 -55 l0 -55 103 0 102 0 -3 425
-2 425 -104 0 -104 0 -4 -277 c-3 -194 -8 -287 -17 -308 -19 -46 -71 -94 -115
-106 -84 -23 -158 11 -185 84 -7 18 -11 138 -11 318 l0 289 -111 0 -110 0 3
-332z"/>
<path d="M15280 1125 l0 -425 110 0 110 0 0 425 0 425 -110 0 -110 0 0 -425z"/>
<path d="M16185 1533 c7 -18 99 -277 236 -663 38 -108 69 -206 69 -218 0 -36
-25 -87 -55 -110 -21 -16 -41 -22 -81 -22 l-54 0 0 -86 0 -87 108 5 c120 5
156 18 196 70 33 44 84 170 173 428 161 464 221 636 232 663 6 16 11 30 11 33
0 2 -51 4 -113 4 l-114 0 -17 -62 c-92 -338 -161 -567 -167 -561 -6 7 -60 181
-168 551 l-22 72 -120 0 c-111 0 -121 -1 -114 -17z"/>
</g>
</svg>
